<?xml version="1.0" encoding="UTF-8" standalone="no"?>
<!-- Created with Inkscape (http://www.inkscape.org/) -->

<svg
   version="1.1"
   id="svg1"
   width="480"
   height="220.00002"
   viewBox="0 0 480 220.00002"
   sodipodi:docname="ZAEG - wit - zonder achtergrond.svg"
   inkscape:version="1.4 (86a8ad7, 2024-10-11)"
   xmlns:inkscape="http://www.inkscape.org/namespaces/inkscape"
   xmlns:sodipodi="http://sodipodi.sourceforge.net/DTD/sodipodi-0.dtd"
   xmlns="http://www.w3.org/2000/svg"
   xmlns:svg="http://www.w3.org/2000/svg">
  <defs
     id="defs1" />
  <sodipodi:namedview
     id="namedview1"
     pagecolor="#00ffff"
     bordercolor="#000000"
     borderopacity="0"
     inkscape:showpageshadow="2"
     inkscape:pageopacity="0.0"
     inkscape:pagecheckerboard="0"
     inkscape:deskcolor="#d1d1d1"
     inkscape:zoom="1.2609375"
     inkscape:cx="246.64188"
     inkscape:cy="161.38786"
     inkscape:window-width="1920"
     inkscape:window-height="1009"
     inkscape:window-x="1912"
     inkscape:window-y="-8"
     inkscape:window-maximized="1"
     inkscape:current-layer="g1" />
  <g
     inkscape:groupmode="layer"
     inkscape:label="Image"
     id="g1"
     transform="translate(-72.862454,-158.45105)">
    <path
       style="fill:#ffffff;fill-opacity:1"
       d="m 72.862454,375.45106 v -3 h 239.999996 240 v 3 3 h -240 -239.999996 z m 0,-44.92604 c 0,-2.15654 5.45665,-11.21833 20.329445,-33.76086 49.771981,-75.43882 55.937621,-84.8455 56.397231,-86.04324 0.38872,-1.01298 -7.32274,-1.26987 -38.11969,-1.26987 H 72.862454 v -3 -3 h 42.499996 42.5 v 2.95845 c 0,2.20954 -8.17435,15.30955 -32.29177,51.75001 -37.327911,56.40096 -44.708226,67.72873 -44.708226,68.62095 0,0.35576 17.212495,0.76468 38.249996,0.90872 l 38.25,0.26188 v 2.5 2.5 l -42.25,0.26085 -42.249996,0.26086 z m 134.451926,0.17604 c 0.36781,-1.5125 7.80851,-24.575 16.53489,-51.25 8.72637,-26.675 17.80486,-54.48711 20.17442,-61.80468 4.09087,-12.63329 4.36778,-13.16315 5.48736,-10.5 0.64849,1.54257 9.85713,29.24218 20.46364,61.55468 l 19.28455,58.75 h 51.80161 51.8016 v 3 3 h -53.93993 -53.93993 l -8.66652,-26.75 c -18.18254,-56.12211 -26.69078,-81.77627 -27.36186,-82.50182 -0.82909,-0.89637 -0.95601,-0.53419 -14.9809,42.75182 -24.36668,75.20459 -21.16789,66.5 -24.4376,66.5 -2.64826,0 -2.83412,-0.23009 -2.22133,-2.75 z m 288.04807,1.2525 c -13.14418,-2.47298 -22.68557,-7.16363 -32.13033,-15.79561 -14.62388,-13.3654 -21.36967,-28.42509 -21.36967,-47.70689 0,-11.0396 1.68266,-18.57353 6.36533,-28.5 12.17374,-25.80635 42.70685,-40.98523 70.63467,-35.11451 8.96487,1.88451 21.51414,7.92122 28.74762,13.82879 4.74716,3.87699 5.24784,4.66896 5.25,8.30439 l 0.002,4.01869 -6.31842,-6.01869 c -6.9161,-6.58802 -15.78415,-11.46615 -25.32592,-13.93128 -7.7738,-2.00837 -22.15129,-2.04179 -29.89556,-0.0695 -19.37342,4.934 -35.16838,20.1191 -41.58787,39.9821 -3.37626,10.44671 -3.17132,25.15125 0.50172,36 9.87096,29.15502 38.68716,45.40818 69.12605,38.98908 8.42114,-1.77589 17.47203,-6.06068 23.25,-11.0068 l 4.25038,-3.63812 v -19.90137 -19.90137 l -20.25,-0.2707 -20.25,-0.27071 v -2.5 -2.5 l 23.25,-0.26843 23.25,-0.26843 v 23.82226 23.82227 l -3.25,3.0512 c -8.49203,7.97257 -20.22078,13.67578 -32.75,15.92498 -9.10727,1.63491 -12.44504,1.62228 -21.5,-0.0813 z M 322.52912,273.78439 c -0.36667,-0.36666 -0.66667,-1.71666 -0.66667,-3 v -2.33333 h 35.5 35.5 v 3 3 h -34.83333 c -19.15834,0 -35.13334,-0.3 -35.5,-0.66667 z m 0,-65.00001 c -0.36667,-0.36666 -0.66667,-1.71666 -0.66667,-3 v -2.33333 h 35.5 35.5 v 3 3 h -34.83333 c -19.15834,0 -35.13334,-0.3 -35.5,-0.66667 z M 72.862454,161.45105 v -3 h 239.999996 240 v 3 3 h -240 -239.999996 z"
       id="path1" />
  </g>
</svg>
